<svg width="14" height="18" viewBox="0 0 14 18" fill="none" xmlns="http://www.w3.org/2000/svg">
<path d="M11.6384 9.23763C11.6384 7.06834 13.4443 6.01865 13.5138 5.94872C12.4719 4.47915 10.9438 4.26921 10.3881 4.1992C9.06846 4.05927 7.7487 4.96903 7.12357 4.96903C6.42902 4.96903 5.38713 4.1992 4.27575 4.1992C2.81717 4.1992 1.49741 5.03896 0.733378 6.36859C-0.794685 9.0277 0.316621 12.9465 1.77527 15.1158C2.5393 16.1655 3.37282 17.3552 4.48413 17.2852C5.5955 17.2152 6.01226 16.5854 7.33195 16.5854C8.6517 16.5854 8.99898 17.2852 10.1798 17.2852C11.3606 17.2852 12.1246 16.2355 12.8192 15.1858C13.6527 13.9962 14 12.8066 14 12.7366C13.9305 12.6666 11.6384 11.8269 11.6384 9.23763Z" fill="white"/>
<path d="M9.48368 2.79913C10.0393 2.02938 10.4561 1.04969 10.3866 0C9.55309 0.0700043 8.44178 0.559812 7.88613 1.32956C7.33048 1.95938 6.84424 3.00907 6.98314 3.98876C7.88613 4.05876 8.85854 3.49895 9.48368 2.79913Z" fill="white"/>
</svg>
